HIERARCHY
ROOT Hips
{
	OFFSET 0.000000 0.000000 0.000000
	CHANNELS 6 Xposition Yposition Zposition Zrotation Yrotation Xrotation 
	JOINT Spine1
	{
		OFFSET -0.013727 5.003763 -0.053727
		CHANNELS 3 Zrotation Yrotation Xrotation
		JOINT Spine2
		{
			OFFSET -0.000000 7.125302 -0.029825
			CHANNELS 3 Zrotation Yrotation Xrotation
			JOINT Chest
			{
				OFFSET -0.000001 7.550064 -0.815971
				CHANNELS 3 Zrotation Yrotation Xrotation
				JOINT Neck1
				{
					OFFSET -0.181676 26.311296 -0.553348
					CHANNELS 3 Zrotation Yrotation Xrotation
					JOINT Neck2
					{
						OFFSET -0.000003 7.709399 2.302586
						CHANNELS 3 Zrotation Yrotation Xrotation
						JOINT Head
						{
							OFFSET -0.000005 6.128913 1.953709
							CHANNELS 3 Zrotation Yrotation Xrotation
							JOINT HeadEnd
							{
								OFFSET 0.003598 16.065401 -1.835380
								CHANNELS 3 Zrotation Yrotation Xrotation
								End Site
								{
									OFFSET 0.000000 0.000000 0.000000
								}
							}
							JOINT Jaw
							{
								OFFSET 0.002637 0.475591 3.094940
								CHANNELS 3 Zrotation Yrotation Xrotation
								End Site
								{
									OFFSET 0.000000 0.000000 0.000000
								}
							}
							JOINT LeftEye
							{
								OFFSET 3.206381 5.380207 7.586883
								CHANNELS 3 Zrotation Yrotation Xrotation
								End Site
								{
									OFFSET 0.000000 0.000000 0.000000
								}
							}
							JOINT RightEye
							{
								OFFSET -3.222440 5.361867 7.558232
								CHANNELS 3 Zrotation Yrotation Xrotation
								End Site
								{
									OFFSET 0.000000 0.000000 0.000000
								}
							}
						}
					}
				}
				JOINT LeftShoulder
				{
					OFFSET 1.621652 23.237165 5.113413
					CHANNELS 3 Zrotation Yrotation Xrotation
					JOINT LeftArm
					{
						OFFSET 14.919845 0.000000 -5.502326
						CHANNELS 3 Zrotation Yrotation Xrotation
						JOINT LeftForeArm
						{
							OFFSET 28.739309 0.000003 -0.002588
							CHANNELS 3 Zrotation Yrotation Xrotation
							JOINT LeftHand
							{
								OFFSET 27.093983 -0.000003 0.002609
								CHANNELS 3 Zrotation Yrotation Xrotation
								JOINT LeftHandThumb1
								{
									OFFSET 2.276480 -1.392046 3.191413
									CHANNELS 3 Zrotation Yrotation Xrotation
									JOINT LeftHandThumb2
									{
										OFFSET 4.012842 -1.828126 1.641656
										CHANNELS 3 Zrotation Yrotation Xrotation
										JOINT LeftHandThumb3
										{
											OFFSET 2.798516 0.000000 -0.000003
											CHANNELS 3 Zrotation Yrotation Xrotation
											JOINT LeftHandThumbEnd
											{
												OFFSET 3.180791 -0.000001 0.000003
												CHANNELS 3 Zrotation Yrotation Xrotation
												End Site
												{
													OFFSET 0.000000 0.000000 0.000000
												}
											}
										}
									}
								}
								JOINT LeftHandIndex1
								{
									OFFSET 3.247554 -0.531998 2.296169
									CHANNELS 3 Zrotation Yrotation Xrotation
									JOINT LeftHandIndex2
									{
										OFFSET 6.364580 0.012062 0.178600
										CHANNELS 3 Zrotation Yrotation Xrotation
										JOINT LeftHandIndex3
										{
											OFFSET 3.662366 0.000001 0.000000
											CHANNELS 3 Zrotation Yrotation Xrotation
											JOINT LeftHandIndex4
											{
												OFFSET 2.329243 0.000002 0.000004
												CHANNELS 3 Zrotation Yrotation Xrotation
												JOINT LeftHandIndexEnd
												{
													OFFSET 2.759619 -0.180539 -0.113024
													CHANNELS 3 Zrotation Yrotation Xrotation
													End Site
													{
														OFFSET 0.000000 0.000000 0.000000
													}
												}
											}
										}
									}
								}
								JOINT LeftHandMiddle1
								{
									OFFSET 3.163499 0.240981 1.000332
									CHANNELS 3 Zrotation Yrotation Xrotation
									JOINT LeftHandMiddle2
									{
										OFFSET 6.190778 -0.259276 -1.002549
										CHANNELS 3 Zrotation Yrotation Xrotation
										JOINT LeftHandMiddle3
										{
											OFFSET 4.356523 -0.000006 -0.000000
											CHANNELS 3 Zrotation Yrotation Xrotation
											JOINT LeftHandMiddle4
											{
												OFFSET 2.996875 -0.000007 0.000000
												CHANNELS 3 Zrotation Yrotation Xrotation
												JOINT LeftHandMiddleEnd
												{
													OFFSET 2.304294 -0.294571 -0.031740
													CHANNELS 3 Zrotation Yrotation Xrotation
													End Site
													{
														OFFSET 0.000000 0.000000 0.000000
													}
												}
											}
										}
									}
								}
								JOINT LeftHandRing1
								{
									OFFSET 2.882642 -0.053650 -0.322543
									CHANNELS 3 Zrotation Yrotation Xrotation
									JOINT LeftHandRing2
									{
										OFFSET 5.854543 -0.486203 -1.373841
										CHANNELS 3 Zrotation Yrotation Xrotation
										JOINT LeftHandRing3
										{
											OFFSET 4.350581 0.000000 0.000004
											CHANNELS 3 Zrotation Yrotation Xrotation
											JOINT LeftHandRing4
											{
												OFFSET 2.651324 0.000008 0.000003
												CHANNELS 3 Zrotation Yrotation Xrotation
												JOINT LeftHandRingEnd
												{
													OFFSET 1.936111 0.077685 -0.000070
													CHANNELS 3 Zrotation Yrotation Xrotation
													End Site
													{
														OFFSET 0.000000 0.000000 0.000000
													}
												}
											}
										}
									}
								}
								JOINT LeftHandPinky1
								{
									OFFSET 2.865499 -0.310004 -1.600378
									CHANNELS 3 Zrotation Yrotation Xrotation
									JOINT LeftHandPinky2
									{
										OFFSET 5.087853 -1.331142 -1.771231
										CHANNELS 3 Zrotation Yrotation Xrotation
										JOINT LeftHandPinky3
										{
											OFFSET 3.070975 0.000003 0.000001
											CHANNELS 3 Zrotation Yrotation Xrotation
											JOINT LeftHandPinky4
											{
												OFFSET 1.549668 -0.000000 0.000001
												CHANNELS 3 Zrotation Yrotation Xrotation
												JOINT LeftHandPinkyEnd
												{
													OFFSET 1.944895 -0.157802 0.057219
													CHANNELS 3 Zrotation Yrotation Xrotation
													End Site
													{
														OFFSET 0.000000 0.000000 0.000000
													}
												}
											}
										}
									}
								}
							}
						}
					}
				}
				JOINT RightShoulder
				{
					OFFSET -1.380118 23.180309 5.214158
					CHANNELS 3 Zrotation Yrotation Xrotation
					JOINT RightArm
					{
						OFFSET -15.037197 0.000012 -5.545604
						CHANNELS 3 Zrotation Yrotation Xrotation
						JOINT RightForeArm
						{
							OFFSET -28.736639 0.000003 -0.002597
							CHANNELS 3 Zrotation Yrotation Xrotation
							JOINT RightHand
							{
								OFFSET -27.133617 0.000000 0.002613
								CHANNELS 3 Zrotation Yrotation Xrotation
								JOINT RightHandThumb1
								{
									OFFSET -2.274036 -1.383990 3.163127
									CHANNELS 3 Zrotation Yrotation Xrotation
									JOINT RightHandThumb2
									{
										OFFSET -4.011429 -1.827467 1.640914
										CHANNELS 3 Zrotation Yrotation Xrotation
										JOINT RightHandThumb3
										{
											OFFSET -2.794934 -0.000004 -0.000003
											CHANNELS 3 Zrotation Yrotation Xrotation
											JOINT RightHandThumbEnd
											{
												OFFSET -3.183855 0.000003 0.000000
												CHANNELS 3 Zrotation Yrotation Xrotation
												End Site
												{
													OFFSET 0.000000 0.000000 0.000000
												}
											}
										}
									}
								}
								JOINT RightHandIndex1
								{
									OFFSET -3.253269 -0.520060 2.282866
									CHANNELS 3 Zrotation Yrotation Xrotation
									JOINT RightHandIndex2
									{
										OFFSET -6.341918 0.012473 0.178265
										CHANNELS 3 Zrotation Yrotation Xrotation
										JOINT RightHandIndex3
										{
											OFFSET -3.654875 -0.000008 -0.000001
											CHANNELS 3 Zrotation Yrotation Xrotation
											JOINT RightHandIndex4
											{
												OFFSET -2.327586 -0.000000 0.000001
												CHANNELS 3 Zrotation Yrotation Xrotation
												JOINT RightHandIndexEnd
												{
													OFFSET -2.761789 -0.180657 -0.113079
													CHANNELS 3 Zrotation Yrotation Xrotation
													End Site
													{
														OFFSET 0.000000 0.000000 0.000000
													}
												}
											}
										}
									}
								}
								JOINT RightHandMiddle1
								{
									OFFSET -3.168106 0.246593 1.001031
									CHANNELS 3 Zrotation Yrotation Xrotation
									JOINT RightHandMiddle2
									{
										OFFSET -6.180830 -0.258835 -1.000896
										CHANNELS 3 Zrotation Yrotation Xrotation
										JOINT RightHandMiddle3
										{
											OFFSET -4.348905 -0.000000 -0.000000
											CHANNELS 3 Zrotation Yrotation Xrotation
											JOINT RightHandMiddle4
											{
												OFFSET -3.000243 -0.000004 -0.000003
												CHANNELS 3 Zrotation Yrotation Xrotation
												JOINT RightHandMiddleEnd
												{
													OFFSET -2.302518 -0.294371 -0.031706
													CHANNELS 3 Zrotation Yrotation Xrotation
													End Site
													{
														OFFSET 0.000000 0.000000 0.000000
													}
												}
											}
										}
									}
								}
								JOINT RightHandRing1
								{
									OFFSET -2.885693 -0.067952 -0.308858
									CHANNELS 3 Zrotation Yrotation Xrotation
									JOINT RightHandRing2
									{
										OFFSET -5.854197 -0.486132 -1.373732
										CHANNELS 3 Zrotation Yrotation Xrotation
										JOINT RightHandRing3
										{
											OFFSET -4.338814 -0.000003 -0.000000
											CHANNELS 3 Zrotation Yrotation Xrotation
											JOINT RightHandRing4
											{
												OFFSET -2.654905 -0.000004 0.000004
												CHANNELS 3 Zrotation Yrotation Xrotation
												JOINT RightHandRingEnd
												{
													OFFSET -1.933570 0.077524 -0.000052
													CHANNELS 3 Zrotation Yrotation Xrotation
													End Site
													{
														OFFSET 0.000000 0.000000 0.000000
													}
												}
											}
										}
									}
								}
								JOINT RightHandPinky1
								{
									OFFSET -2.866429 -0.342798 -1.584145
									CHANNELS 3 Zrotation Yrotation Xrotation
									JOINT RightHandPinky2
									{
										OFFSET -5.091370 -1.332054 -1.772385
										CHANNELS 3 Zrotation Yrotation Xrotation
										JOINT RightHandPinky3
										{
											OFFSET -3.062666 -0.000007 0.000001
											CHANNELS 3 Zrotation Yrotation Xrotation
											JOINT RightHandPinky4
											{
												OFFSET -1.546527 0.000006 -0.000003
												CHANNELS 3 Zrotation Yrotation Xrotation
												JOINT RightHandPinkyEnd
												{
													OFFSET -1.945122 -0.157721 0.057211
													CHANNELS 3 Zrotation Yrotation Xrotation
													End Site
													{
														OFFSET 0.000000 0.000000 0.000000
													}
												}
											}
										}
									}
								}
							}
						}
					}
				}
			}
		}
	}
	JOINT LeftLeg
	{
		OFFSET 10.043214 -8.434526 2.595655
		CHANNELS 3 Zrotation Yrotation Xrotation
		JOINT LeftShin
		{
			OFFSET -0.000002 -43.221752 -0.802913
			CHANNELS 3 Zrotation Yrotation Xrotation
			JOINT LeftFoot
			{
				OFFSET 0.000002 -42.155094 -3.481522
				CHANNELS 3 Zrotation Yrotation Xrotation
				JOINT LeftToeBase
				{
					OFFSET 0.000000 -5.059475 13.231529
					CHANNELS 3 Zrotation Yrotation Xrotation
					JOINT LeftToeEnd
					{
						OFFSET -0.009607 -1.647615 6.513017
						CHANNELS 3 Zrotation Yrotation Xrotation
						End Site
						{
							OFFSET 0.000000 0.000000 0.000000
						}
					}
				}
			}
		}
	}
	JOINT RightLeg
	{
		OFFSET -10.047277 -8.295259 2.620317
		CHANNELS 3 Zrotation Yrotation Xrotation
		JOINT RightShin
		{
			OFFSET 0.000001 -43.362209 -0.805555
			CHANNELS 3 Zrotation Yrotation Xrotation
			JOINT RightFoot
			{
				OFFSET 0.000002 -42.117393 -3.478397
				CHANNELS 3 Zrotation Yrotation Xrotation
				JOINT RightToeBase
				{
					OFFSET -0.000001 -5.079609 13.284196
					CHANNELS 3 Zrotation Yrotation Xrotation
					JOINT RightToeEnd
					{
						OFFSET 0.009532 -1.634383 6.460591
						CHANNELS 3 Zrotation Yrotation Xrotation
						End Site
						{
							OFFSET 0.000000 0.000000 0.000000
						}
					}
				}
			}
		}
	}
}
MOTION
Frames: 4
Frame Time: 0.033333
-10.576410 36.125404 26.259686 5.384558 9.287436 -18.461079 -3.766028 2.288647 13.677979 -0.753103 0.413208 2.480141 -1.909521 -0.632024 38.546402 -1.851413 6.818010 52.841644 -2.667197 -3.324583 -3.093494 -2.674954 -3.117755 11.771018 0.000078 -0.000022 0.000006 -0.146026 -0.097978 -0.114798 0.846126 -3.581194 -10.092608 -1.152229 3.392684 -9.984324 -3.841092 -4.788944 22.772778 -65.268936 -33.949062 44.291775 -143.700012 -86.786720 144.042984 -3.397222 11.344275 51.610435 -5.882101 9.861278 0.702589 -10.936858 -0.360575 7.156198 0.000000 8.774813 -0.000001 -14.943462 17.695036 6.305991 -1.844031 2.498502 -2.507276 -10.163590 4.678941 4.621104 -20.975994 -0.000001 0.000000 -21.226254 2.451691 -3.593995 -0.000002 -0.000007 -0.000001 -1.362679 2.240795 -0.746324 -21.334887 0.584910 3.008317 -13.821198 -0.000002 0.000000 -23.887131 -0.249080 -0.839483 -59.437061 2.342204 -0.928718 -0.294025 1.679686 0.833255 -14.218194 0.093213 1.300578 -34.212002 -0.287562 0.967166 -20.033178 0.964534 1.212841 0.000000 0.000000 0.000001 -3.440385 0.788233 0.501655 -15.928165 -3.167305 2.999704 -6.338817 -0.000000 0.000001 -18.123413 3.648173 -4.905662 -0.000003 0.000002 -0.000003 8.003409 12.975499 25.666161 67.380585 23.253489 20.617157 122.163223 87.112282 120.356834 15.886049 -6.666937 4.632514 2.243540 -5.255033 -3.180156 14.282873 -0.826591 6.952495 -0.000003 -12.690587 -0.000001 17.012594 -17.038511 2.528331 1.665666 -1.955920 -2.878296 4.727792 -4.170583 4.993917 11.020511 0.000003 -0.000002 12.109030 -3.735710 -2.866782 0.000001 -0.000002 -0.000000 1.291984 -1.928548 -1.498089 14.800107 0.567469 3.865602 14.242553 -1.341736 -6.660649 19.631939 0.143925 -0.648245 50.832920 -1.012068 -5.872843 0.353029 -1.511148 -0.031941 20.222765 3.684306 2.316626 18.787243 0.000005 -0.000000 10.751610 -0.479868 1.397904 0.000000 0.000000 0.000000 3.273804 0.305949 -0.580109 21.486790 11.830361 2.266130 8.162916 0.000001 0.000000 18.399050 -3.798978 -4.940568 0.000003 0.000001 0.000001 47.100220 -24.153183 -30.588137 -3.115795 -1.586056 137.762665 8.667788 -52.678997 -38.863674 2.540865 -0.620100 -64.983353 -0.000000 0.000000 0.000002 -33.824303 11.562771 -21.569906 1.557397 1.454618 155.337036 -7.266890 32.056274 -44.269638 -1.790157 0.218622 -60.298580 -0.000000 -0.000000 -0.000001 
-10.495849 36.155796 26.321320 5.408359 9.229519 -18.311419 -3.769705 2.287948 13.694844 -0.750392 0.421782 2.497373 -1.927980 -0.641388 38.599869 -1.835574 6.776654 52.882763 -2.715474 -3.303118 -3.092334 -2.617084 -3.044485 11.923302 0.000076 -0.000022 0.000006 -0.159681 -0.106977 -0.117145 0.829777 -3.587330 -10.082157 -1.167427 3.385644 -9.980397 -3.981138 -4.730031 22.795923 -64.944740 -34.024956 44.087559 -146.022049 -86.423019 146.384766 -3.486673 11.200482 51.769329 -5.882101 9.861278 0.702591 -10.936858 -0.360576 7.156198 0.000000 8.774814 -0.000001 -14.943618 17.685076 6.303615 -1.844031 2.498503 -2.507275 -10.163589 4.678938 4.621106 -20.975994 -0.000002 0.000005 -21.226254 2.451696 -3.593993 -0.000001 -0.000006 0.000001 -1.362681 2.240795 -0.746323 -21.334887 0.584909 3.008322 -13.821197 -0.000001 0.000004 -23.887129 -0.249074 -0.839478 -59.419426 2.368026 -0.940989 -0.294026 1.679685 0.833255 -14.218194 0.093215 1.300581 -34.212006 -0.287560 0.967173 -20.033180 0.964537 1.212844 0.000000 0.000001 0.000001 -3.440386 0.788234 0.501657 -15.928167 -3.167306 2.999706 -6.338817 0.000000 0.000003 -18.123415 3.648177 -4.905663 -0.000003 0.000001 -0.000002 8.038900 12.992231 25.709974 67.420563 23.343609 20.558699 127.395126 86.864929 125.640419 15.794018 -6.818446 5.074152 2.243540 -5.255033 -3.180153 14.282873 -0.826594 6.952495 -0.000003 -12.690592 0.000003 17.039373 -17.069763 2.524512 1.665664 -1.955921 -2.878297 4.727794 -4.170586 4.993919 11.020512 0.000003 -0.000001 12.109030 -3.735712 -2.866777 0.000001 -0.000002 -0.000000 1.291984 -1.928548 -1.498088 14.800109 0.567468 3.865602 14.242551 -1.341735 -6.660650 19.631935 0.143927 -0.648246 50.831455 -1.044995 -5.909514 0.353029 -1.511149 -0.031939 20.222765 3.684304 2.316628 18.787243 0.000004 0.000001 10.751608 -0.479868 1.397904 -0.000003 0.000000 -0.000000 3.273804 0.305948 -0.580110 21.486788 11.830361 2.266131 8.162915 -0.000000 0.000001 18.399052 -3.798982 -4.940568 0.000002 0.000001 0.000000 47.060833 -23.902948 -30.481445 -3.149241 -1.570076 137.812210 8.906286 -52.557632 -39.126957 2.538159 -0.618601 -64.886032 -0.000000 0.000000 0.000002 -34.049633 11.749421 -21.616564 1.564930 1.444356 155.289490 -7.238755 32.258244 -44.540176 -1.798826 0.214041 -60.202335 -0.000000 -0.000000 -0.000001 
-10.359752 36.197437 26.351204 5.412766 9.130560 -18.125498 -3.775530 2.300890 13.700934 -0.741529 0.430164 2.519350 -1.960174 -0.634411 38.618637 -1.861112 6.772200 52.898182 -2.732861 -3.276905 -3.092616 -2.603851 -2.962264 12.038517 0.000078 -0.000023 0.000006 -0.176130 -0.110958 -0.120629 0.824895 -3.596220 -10.082426 -1.184889 3.384332 -9.986937 -4.142089 -4.684499 22.830088 -64.658508 -34.106724 43.886173 -147.757523 -86.142067 148.111511 -3.514259 10.979873 51.828556 -5.882102 9.861279 0.702588 -10.936858 -0.360575 7.156196 -0.000000 8.774813 -0.000002 -14.926000 17.684750 6.294261 -1.844031 2.498503 -2.507276 -10.163589 4.678939 4.621103 -20.975992 -0.000002 0.000001 -21.226248 2.451697 -3.593995 -0.000001 -0.000006 -0.000002 -1.362680 2.240796 -0.746323 -21.334888 0.584909 3.008320 -13.821194 -0.000002 0.000002 -23.887131 -0.249077 -0.839482 -59.383224 2.406629 -0.941787 -0.294025 1.679685 0.833256 -14.218192 0.093214 1.300578 -34.211998 -0.287563 0.967169 -20.033180 0.964535 1.212843 -0.000001 -0.000001 0.000001 -3.440386 0.788232 0.501653 -15.928164 -3.167305 2.999702 -6.338817 0.000000 0.000003 -18.123411 3.648178 -4.905662 -0.000004 0.000001 -0.000002 8.067907 13.021462 25.715504 67.445374 23.393440 20.528748 131.737564 86.616142 130.027374 15.730448 -6.899524 5.441082 2.243538 -5.255033 -3.180154 14.282877 -0.826593 6.952495 -0.000003 -12.690587 -0.000001 17.078978 -17.054003 2.516509 1.665664 -1.955920 -2.878295 4.727794 -4.170583 4.993918 11.020512 0.000004 -0.000001 12.109031 -3.735709 -2.866777 0.000000 -0.000001 -0.000001 1.291984 -1.928546 -1.498089 14.800117 0.567470 3.865604 14.242553 -1.341734 -6.660646 19.631939 0.143925 -0.648241 50.780762 -1.063191 -5.893570 0.353029 -1.511150 -0.031940 20.222765 3.684305 2.316629 18.787245 0.000004 0.000002 10.751610 -0.479868 1.397904 -0.000001 0.000000 0.000001 3.273804 0.305946 -0.580111 21.486792 11.830363 2.266132 8.162917 0.000001 0.000001 18.399054 -3.798979 -4.940569 0.000003 0.000001 0.000000 46.959751 -23.599318 -30.394630 -3.129261 -1.567991 137.913864 9.124681 -52.390759 -39.325146 2.532070 -0.616106 -64.831085 0.000000 0.000000 0.000002 -34.260963 12.042562 -21.898151 1.592892 1.433978 155.222763 -7.086861 32.547211 -44.616440 -1.811704 0.218032 -60.089916 0.000000 0.000000 -0.000001 
-10.246809 36.212761 26.384418 5.418837 9.039155 -17.955660 -3.781249 2.311894 13.724051 -0.742098 0.441755 2.532014 -1.995583 -0.626235 38.650333 -1.940335 6.860775 52.882805 -2.716335 -3.269949 -3.090832 -2.559411 -2.864045 12.126228 0.000077 -0.000022 0.000006 -0.175597 -0.112891 -0.121933 0.821880 -3.600288 -10.077209 -1.187773 3.388353 -9.987105 -4.303303 -4.643636 22.768843 -64.449921 -34.099361 43.761787 -149.519775 -85.858345 149.953796 -3.525787 10.725536 51.756920 -5.882102 9.861278 0.702590 -10.936859 -0.360573 7.156197 -0.000001 8.774814 -0.000003 -14.944095 17.688030 6.274264 -1.844031 2.498501 -2.507277 -10.163589 4.678942 4.621104 -20.975994 -0.000001 -0.000002 -21.226250 2.451696 -3.593997 -0.000001 -0.000005 -0.000001 -1.362681 2.240798 -0.746323 -21.334887 0.584912 3.008320 -13.821197 -0.000002 0.000001 -23.887133 -0.249074 -0.839483 -59.393845 2.428235 -0.941969 -0.294026 1.679687 0.833254 -14.218195 0.093217 1.300579 -34.212006 -0.287559 0.967167 -20.033180 0.964536 1.212840 0.000000 0.000000 0.000000 -3.440384 0.788234 0.501655 -15.928167 -3.167304 2.999705 -6.338817 0.000001 0.000002 -18.123415 3.648178 -4.905662 -0.000003 -0.000000 -0.000003 8.063285 13.052176 25.694590 67.521172 23.465660 20.556494 134.431259 86.393364 132.800095 15.697478 -6.932416 5.759289 2.243540 -5.255031 -3.180155 14.282877 -0.826594 6.952496 -0.000004 -12.690592 0.000001 17.124094 -17.088633 2.507212 1.665665 -1.955918 -2.878297 4.727794 -4.170582 4.993919 11.020511 0.000004 -0.000000 12.109032 -3.735711 -2.866778 0.000001 -0.000001 -0.000001 1.291984 -1.928549 -1.498088 14.800111 0.567468 3.865604 14.242551 -1.341735 -6.660646 19.631939 0.143927 -0.648242 50.768147 -1.117746 -5.874911 0.353029 -1.511147 -0.031941 20.222767 3.684306 2.316629 18.787245 0.000005 0.000001 10.751612 -0.479868 1.397904 -0.000002 0.000000 0.000001 3.273804 0.305948 -0.580109 21.486790 11.830364 2.266132 8.162917 0.000001 0.000000 18.399054 -3.798980 -4.940566 0.000002 0.000001 0.000000 46.879040 -23.370392 -30.302160 -3.108500 -1.561596 137.996140 9.355669 -52.246143 -39.554623 2.533517 -0.615369 -64.871880 -0.000000 0.000000 0.000002 -34.441154 12.289717 -22.104149 1.613755 1.454244 155.178055 -6.974627 32.816479 -44.735023 -1.806623 0.207273 -59.846176 -0.000000 -0.000000 -0.000001 
